<?xml version="1.0" standalone="no"?>
<!DOCTYPE svg PUBLIC "-//W3C//DTD SVG 20010904//EN"
 "http://www.w3.org/TR/2001/REC-SVG-20010904/DTD/svg10.dtd">
<svg version="1.0" xmlns="http://www.w3.org/2000/svg"
 width="24.000000pt" height="24.000000pt" viewBox="0 0 24.000000 24.000000"
 preserveAspectRatio="xMidYMid meet">

<g transform="translate(0.000000,24.000000) scale(0.100000,-0.100000)"
fill="#000000" stroke="none">
<path d="M165 216 c-18 -13 -18 -14 4 -26 13 -6 21 -7 17 -2 -3 6 0 13 6 15
10 4 10 6 0 6 -7 1 -10 6 -7 11 8 14 2 13 -20 -4z"/>
<path d="M100 206 c0 -8 -7 -17 -15 -20 -13 -5 -15 -21 -13 -83 l3 -78 45 0
45 0 3 78 c2 62 0 78 -13 83 -8 3 -15 12 -15 20 0 8 -9 14 -20 14 -11 0 -20
-6 -20 -14z m45 -36 c4 -6 -7 -10 -25 -10 -18 0 -29 4 -25 10 3 6 15 10 25 10
10 0 22 -4 25 -10z m-9 -61 c10 -17 -13 -36 -27 -22 -12 12 -4 33 11 33 5 0
12 -5 16 -11z"/>
</g>
</svg>
